<?xml version="1.0" encoding="UTF-8" standalone="no"?>
<!-- Created with Inkscape (http://www.inkscape.org/) -->

<svg
   xmlns:dc="http://purl.org/dc/elements/1.1/"
   xmlns:cc="http://creativecommons.org/ns#"
   xmlns:rdf="http://www.w3.org/1999/02/22-rdf-syntax-ns#"
   xmlns:svg="http://www.w3.org/2000/svg"
   xmlns="http://www.w3.org/2000/svg"
   xmlns:sodipodi="http://sodipodi.sourceforge.net/DTD/sodipodi-0.dtd"
   xmlns:inkscape="http://www.inkscape.org/namespaces/inkscape"
   width="300.03"
   height="222.636"
   id="svg4309"
   sodipodi:version="0.32"
   inkscape:version="0.92.2 5c3e80d, 2017-08-06"
   version="1.0"
   sodipodi:docname="txtpms_logo.svg"
   inkscape:output_extension="org.inkscape.output.svg.inkscape"
   inkscape:export-filename="/Users/cde/devel/SDR/txtpms/pics/txtpms_logo.png"
   inkscape:export-xdpi="38.419636"
   inkscape:export-ydpi="38.419636">
  <defs
     id="defs4311">
    <inkscape:perspective
       sodipodi:type="inkscape:persp3d"
       inkscape:vp_x="0 : 526.18109 : 1"
       inkscape:vp_y="0 : 1000 : 0"
       inkscape:vp_z="744.09448 : 526.18109 : 1"
       inkscape:persp3d-origin="372.04724 : 350.78739 : 1"
       id="perspective4317" />
  </defs>
  <sodipodi:namedview
     id="base"
     pagecolor="#ffffff"
     bordercolor="#666666"
     borderopacity="1.0"
     gridtolerance="10000"
     guidetolerance="10"
     objecttolerance="10"
     inkscape:pageopacity="0.0"
     inkscape:pageshadow="2"
     inkscape:zoom="0.35355339"
     inkscape:cx="771.28879"
     inkscape:cy="740.24255"
     inkscape:document-units="px"
     inkscape:current-layer="layer1"
     showgrid="false"
     showborder="false"
     inkscape:showpageshadow="false"
     inkscape:window-width="1638"
     inkscape:window-height="1005"
     inkscape:window-x="1041"
     inkscape:window-y="1081"
     inkscape:window-maximized="1" />
  <metadata
     id="metadata4314">
    <rdf:RDF>
      <cc:Work
         rdf:about="">
        <dc:format>image/svg+xml</dc:format>
        <dc:type
           rdf:resource="http://purl.org/dc/dcmitype/StillImage" />
        <dc:title />
      </cc:Work>
    </rdf:RDF>
  </metadata>
  <g
     inkscape:label="Layer 1"
     inkscape:groupmode="layer"
     id="layer1"
     transform="translate(572.87354,-321.04418)">
    <rect
       style="fill:#000000;stroke:none;stroke-width:0.23159727;stroke-miterlimit:4;stroke-dasharray:none"
       id="rect4767"
       width="2274.5981"
       height="500"
       x="-572.87354"
       y="43.680183" />
    <text
       xml:space="preserve"
       style="font-style:normal;font-weight:normal;font-size:548.69390869px;line-height:1.25;font-family:sans-serif;letter-spacing:0px;word-spacing:0px;fill:#008000;fill-opacity:1;stroke:none;stroke-width:2.05773568"
       x="216.26984"
       y="493.68011"
       id="text4757"><tspan
         sodipodi:role="line"
         id="tspan4755"
         x="216.26984"
         y="493.68011"
         style="font-size:548.69390869px;fill:#008000;stroke-width:2.05773568">TP</tspan></text>
    <g
       transform="matrix(1.058956,0,0,1.058956,820.19111,41.836844)"
       id="g3499"
       style="fill:#ff0000;fill-rule:nonzero;stroke:none;stroke-width:0.17658903;stroke-linecap:round;stroke-linejoin:round;stroke-miterlimit:4;stroke-dasharray:none">
      <path
         d="m 314.2583,323.64893 c 0,-14.45313 -11.7168,-26.16993 -26.16992,-26.16993 -14.45313,0 -26.16992,11.7168 -26.16992,26.16993 0,14.45312 11.71679,26.16992 26.16992,26.16992 14.45312,0 26.16992,-11.7168 26.16992,-26.16992 z"
         id="path3501"
         inkscape:connector-curvature="0"
         style="fill:#ff0000;stroke:none;stroke-width:0.17658903;stroke-miterlimit:4;stroke-dasharray:none" />
      <path
         d="m 261.91846,100.74365 v 135.07031 c 0,14.45411 11.71679,26.16993 26.16992,26.16993 14.45312,0 26.16992,-11.71582 26.16992,-26.16993 V 100.74365 c 0,-14.453123 -11.7168,-26.16992 -26.16992,-26.16992 -14.45313,0 -26.16992,11.716797 -26.16992,26.16992 z"
         id="path3503"
         inkscape:connector-curvature="0"
         style="fill:#ff0000;stroke:none;stroke-width:0.17658903;stroke-miterlimit:4;stroke-dasharray:none" />
      <path
         d="m 406.63623,379.87451 c 57.71973,-48.15039 80.58105,-126.43066 57.84766,-198.07715 -1.78614,-5.63134 -4.48633,-10.93164 -7.99122,-15.68847 L 411.48291,105.01904 C 404.65088,95.745605 400.96533,84.529297 400.96533,73.010742 V 56.651855 c 0,-3.973633 3.2207,-7.194824 7.19531,-7.194824 h 27.42481 c 4.65723,0 8.54394,3.554199 8.95898,8.192383 l 3.13574,35.062012 c 0.89942,10.049804 4.59864,19.645504 10.67579,27.698734 23.3916,30.99365 37.8789,67.7832 41.90234,106.40381 2.59961,50.35449 -12.79492,99.99121 -43.43066,140.03808 l -16.80469,54.0625 c -0.5586,1.79785 -2.17871,3.05762 -4.0586,3.15625 l -39.87793,2.08985 v -22.20899 h -30.85644 v 22.20898 h -30.85644 v -22.20898 h -30.85645 v 22.20898 h -30.85693 v -22.20898 h -30.85645 v 22.20898 h -30.85644 v -22.20898 h -30.85645 v 22.20898 l -39.87793,-2.08984 c -1.88037,-0.0986 -3.50049,-1.3584 -4.05908,-3.15625 l -16.80469,-54.0625 C 88.713378,326.80517 73.319335,277.16846 75.918944,226.81396 c 4.022949,-38.6206 18.510742,-75.41015 41.901856,-106.40381 6.07764,-8.05322 9.77637,-17.64892 10.67529,-27.698725 l 3.13672,-35.062012 c 0.41504,-4.638184 4.30176,-8.192383 8.9585,-8.192383 h 27.42529 c 3.97412,0 7.19531,3.221191 7.19531,7.194824 v 16.358887 c 0,11.518555 -3.68554,22.734863 -10.51855,32.008299 l -45.00928,61.08985 c -3.50439,4.75683 -6.20459,10.05712 -7.99121,15.68847 -22.733398,71.64649 0.12793,149.92676 57.84766,198.07715 z"
         id="path3505"
         style="fill:#ff0000;stroke:none;stroke-width:0.17658903;stroke-linecap:butt;stroke-linejoin:miter;stroke-miterlimit:4;stroke-dasharray:none"
         inkscape:connector-curvature="0" />
    </g>
    <g
       transform="matrix(0.521699,0,0,0.521699,-573.15247,314.03359)"
       id="Layer_x0020_1"
       style="fill-rule:nonzero;stroke:#000000;stroke-miterlimit:4" />
    <flowRoot
       xml:space="preserve"
       id="flowRoot3896"
       style="font-style:normal;font-weight:normal;font-size:40px;line-height:1.25;font-family:sans-serif;letter-spacing:0px;word-spacing:0px;fill:#ff6600;fill-opacity:1;stroke:none"
       transform="matrix(5.7155615,0,0,5.7155615,2448.0737,223.99944)"><flowRegion
         id="flowRegion3898"
         style="fill:#ff6600"><rect
           id="rect3900"
           width="149.89995"
           height="119.63846"
           x="-517.96411"
           y="-37.753582"
           style="fill:#ff6600" /></flowRegion><flowPara
         id="flowPara3902"
         style="font-size:96px;fill:#ff6600">T</flowPara></flowRoot>    <flowRoot
       xml:space="preserve"
       id="flowRoot4759"
       style="font-style:normal;font-weight:normal;font-size:40px;line-height:1.25;font-family:sans-serif;letter-spacing:0px;word-spacing:0px;fill:#008000;fill-opacity:1;stroke:none"
       transform="matrix(2.7544652,0,0,2.7544652,1186.3529,1.2926202)"><flowRegion
         id="flowRegion4761"
         style="fill:#008000"><rect
           id="rect4763"
           width="172.09576"
           height="236.84987"
           x="55.236973"
           y="6.1667881"
           style="fill:#008000" /></flowRegion><flowPara
         id="flowPara4765"
         style="font-size:192px;fill:#008000">S</flowPara></flowRoot>    <rect
       style="fill:#000000;stroke:none;stroke-width:0.0651905;stroke-miterlimit:4;stroke-dasharray:none"
       id="rect4767-7"
       width="180.22145"
       height="500"
       x="-165.39565"
       y="43.680176" />
    <g
       id="g290"
       transform="translate(10)">
      <path
         sodipodi:nodetypes="sccccccccccccccccccccscccccccssscccccccscccccccsscs"
         id="path162"
         d="m 157.59978,93.858651 c 0,0.18769 -0.40666,0.46923 -0.40666,0.46923 l 0.43794,397.493459 1.28254,0.87588 c 1.50151,0.96972 0.93845,1.37638 -0.71947,0.5005 -0.96972,-0.46922 -1.03229,-0.46922 -1.43895,0.0626 -0.21897,0.28154 -0.5005,0.46923 -0.59434,0.3441 -0.12513,-0.12512 -0.0313,-0.40666 0.1564,-0.65691 0.31282,-0.37538 -0.0938,-0.68819 -2.37739,-1.93945 -4.62965,-2.50252 -13.38846,-7.82037 -19.01913,-11.54286 C 104.4213,459.31994 76.424375,433.35633 56.028867,406.26658 47.019807,394.28579 37.729217,379.083 32.317527,367.44629 l -1.783053,-3.78505 -6.60039,-0.18769 c -7.03832,-0.21897 -10.97979,-0.62563 -11.66798,-1.1887 -0.75076,-0.62563 -0.5005,-1.78304 1.25126,-5.91219 3.22199,-7.6014 3.91018,-10.91723 4.16043,-19.70732 0.18769,-7.03833 -0.12512,-11.26133 -1.50151,-18.92529 -1.03229,-5.63066 -2.5338,-10.38544 -3.8789,-12.35617 -0.59435,-0.8446 -1.87689,-1.78305 -4.5670899,-3.31584 -3.84762,-2.15842 -6.78971004,-4.97564 -6.78971004,-4.97564 0,0 -3.30039996,-3.00921 -2.12713996,-4.75598 2.76431,-4.11555 10.88758,-3.43787 13.2336899,-3.71941 l 1.3451,-0.1564 v -4.44197 c 0.0313,-17.32993 3.22199,-36.63059 8.91522,-53.86668 2.6902,-8.16446 5.25528,-14.38947 9.19675,-22.52265 13.638713,-27.96562 34.065513,-52.86566 62.281396,-75.88882 17.11096,-13.95153 41.04128,-28.81022 58.08968,-36.067519 4.44196,-1.87689 5.7245,-2.28355 5.7245,-1.81433 z M 41.952217,295.62407 c -0.816665,1.59611 -1.78305,2.72149 -3.06559,4.28556 -1.31382,1.53279 -2.81533,3.69121 -3.34711,4.78606 -0.90717,1.84561 -0.96973,2.06458 -0.75076,4.53582 0.40666,4.94247 1.59536,9.41572 6.13117,23.21084 4.59837,13.92025 6.28757,20.67704 6.75679,26.77693 l 0.21897,3.0343 -2.03329,0.3441 c -1.12613,0.18769 -2.50252,0.34409 -3.09687,0.34409 -0.59434,0 -1.37638,0.0938 -1.72048,0.18769 -0.68819,0.18769 -0.68819,0.18769 0.25025,2.25227 9.916229,21.95958 23.83648,43.012 42.292538,63.87674 4.973765,5.59938 16.641755,17.42377 22.866765,23.117 14.29562,13.10693 27.62152,23.55494 45.20171,35.44189 4.28556,2.90918 5.36523,3.61271 5.36523,3.61271 L 156.3657,94.894201 c 0,0 -16.85305,9.120599 -37.92138,24.811839 -20.6967,15.41446 -44.470817,38.43682 -59.819678,61.56177 -35.262418,53.12717 -33.837348,96.73363 -33.971078,107.84971 11.930237,1.11821 21.177028,-1.07346 17.298653,6.50655 z"
         inkscape:connector-curvature="0"
         style="fill:#ffffff;stroke:none;stroke-width:0.03128146" />
      <path
         id="path3879"
         d="m -120.28805,93.858801 c 0,0.18768 0.18769,0.37539 0.40664,0.46922 0.40665,0.12523 -3.28454,5.66194 -77.7657,116.742449 l -44.26328,66.00391 -5.66195,0.0937 c -3.0969,0.0315 -5.66194,0.12506 -5.66194,0.21896 0,0.0626 1.18865,2.00201 2.62764,4.28555 l 2.59626,4.16046 -3.4722,0.15637 -3.44099,0.15637 2.15854,1.40766 c 1.75171,1.15743 2.03323,1.43894 1.47018,1.50151 -0.65698,0.0937 -0.68818,0.25028 -0.68818,2.59637 0,2.40867 0.0317,2.47121 0.75076,2.47121 0.53169,0 0.96971,0.34412 1.43898,1.06357 l 0.65681,1.09486 -3.09687,4.78609 -3.0969,4.78605 6.38152,0.15637 6.41272,0.15637 41.60429,63.18857 c 22.86674,34.75373 50.3632,76.51449 61.09273,92.8434 l 19.51963,29.62358 -1.28254,0.87587 c -1.50149,0.96972 -0.93844,1.37638 0.71951,0.50049 0.96971,-0.46921 1.03227,-0.46921 1.43892,0.0626 0.21899,0.28155 0.5005,0.46923 0.59436,0.34411 0.12506,-0.12523 0.0311,-0.40666 -0.15637,-0.6569 -0.31284,-0.37539 0.0937,-0.68822 2.37738,-1.93946 4.62967,-2.50251 13.38846,-7.82038 19.019115,-11.54286 30.49945,-20.14528 58.49636,-46.10889 78.891909,-73.19865 9.0090366,-11.98079 18.29964148,-27.18358 23.7113256,-38.82029 l 1.783039,-3.78509 6.6003994,-0.18767 c 7.038355,-0.21896 10.979788,-0.62562 11.667985,-1.18869 0.75078,-0.62561 0.50052,-1.78303 -1.251246,-5.9122 -3.221998,-7.6014 -3.910177,-10.91722 -4.160437,-19.70734 -0.187677,-7.0383 0.125059,-11.26132 1.501524,-18.92529 1.032277,-5.63065 2.533783,-10.38545 3.878886,-12.35617 0.594358,-0.8446 1.876895,-1.78305 4.5671,-3.31583 3.84763,-2.15845 7.226014,-4.9112 8.414713,-6.85065 0.594341,-0.96974 1.876878,-1.53279 1.876878,-0.8446 0,0.5318 -2.25225,3.12816 -4.222966,4.87991 -2.565111,2.25227 -8.039377,6.41271 -9.978802,7.53882 -1.751766,1.0323 -1.845622,1.28258 -0.250278,0.59434 0.62565,-0.25022 9.259331,-3.81634 19.144295,-7.85163 9.88491,-4.06659 18.111972,-7.47627 18.268376,-7.63267 0.156368,-0.12506 -0.03113,-0.40667 -0.469229,-0.56309 -1.438941,-0.62552 -37.662895,-15.42169 -38.132123,-15.57809 -0.875892,-0.28153 1.720475,1.81431 6.412705,5.16146 4.410697,3.12814 9.884946,7.97676 9.478282,8.35215 -0.156368,0.18767 -12.512603,-0.37539 -14.858692,-0.65693 l -1.345102,-0.15636 v -4.44197 c -0.03113,-17.32993 -3.221998,-36.6306 -8.915215,-53.8667 -2.690223,-8.16446 -5.2552974,-14.38947 -9.1967664,-22.52265 -13.638719,-27.96565 -34.0655156,-52.86569 -62.2814206,-75.88885 -17.11097,-13.95153 -41.0413,-28.81024 -58.089665,-36.067539 -4.44197,-1.8769 -5.72452,-2.28355 -5.72452,-1.81434 z m 6.35012,4.03531 c 25.025155,14.921239 43.700205,29.091769 61.968585,47.016059 23.523695,23.117 40.822346,48.48627 51.80213448,76.01397 7.94548512,19.92629 12.79413652,44.16943 12.82539252,64.03319 v 4.16042 H -88.255855 -189.16993 l -8.38337,-5.94348 -8.38339,-5.94347 -17.67403,-0.0626 -17.70542,-0.0937 61.06154,-91.09165 c 33.59626,-50.11292 61.09266,-91.122919 61.15523,-91.122919 0.0626,0 2.37738,1.3451 5.16144,3.03431 z M -247.91645,294.40432 c 0,0.0937 -0.21892,0.43794 -0.43803,0.75078 -0.40668,0.53176 -0.4691,0.53176 -0.93835,-0.15637 -0.68821,-0.96973 -0.62561,-1.09486 0.43787,-0.93845 0.53184,0.0626 0.93851,0.21897 0.93851,0.3441 z m 243.2759956,1.21998 c 0.406646,0.81334 1.783022,2.72151 3.065577,4.28556 1.31381088,1.53278 2.815353,3.69123 3.34711,4.78607 0.907148,1.84562 0.969731,2.06457 0.750762,4.53581 -0.406663,4.94249 -1.59536212,9.41574 -6.131154,23.21088 -4.598392,13.92021 -6.287592,20.67704 -6.7568216,26.77692 l -0.218968,3.03432 2.0332996,0.34408 c 1.126134,0.18769 2.502528,0.3441 3.096868,0.3441 0.594341,0 1.376394,0.0937 1.720475,0.18767 0.688197,0.18772 0.688197,0.18772 -0.250242,2.25229 -9.9162196,21.95959 -23.8364916,43.012 -42.2925566,63.87675 -4.97376,5.5994 -16.64173,17.42381 -22.86676,23.11702 -14.29564,13.10693 -27.62156,23.55494 -45.201725,35.44188 -4.28554,2.90917 -5.53682,3.62868 -5.81835,3.31585 -0.25026,-0.28153 -115.02199,-174.55061 -121.34077,-184.31043 l -0.59441,-0.90715 17.79919,0.18768 17.83041,0.21897 8.91522,-6.09988 8.91519,-6.0999 91.654725,0.0315 h 91.6547156 z"
         inkscape:connector-curvature="0"
         style="fill:#ff6600;stroke:none;stroke-width:0.03128146" />
    </g>
  </g>
</svg>
